<svg fill="none" height="16" viewBox="0 0 16 16" width="16" xmlns="http://www.w3.org/2000/svg"><g fill="#6ac80c"><path d="m12.923 6.15405h-1.2309c-.0004-.4895-.1951-.95881-.5412-1.30493-.3462-.34613-.8155-.5408-1.30497-.54128v-1.23081c.81577.00097 1.59787.32547 2.17467.90231.5769.57685.9014 1.35893.9024 2.17471z"/><path d="m15.3846 6.15405h-1.2308c-.0013-1.14211-.4556-2.23707-1.2632-3.04466s-1.9026-1.26187-3.04467-1.26317v-1.230811c1.46847.001629 2.87627.585681 3.91467 1.624031 1.0383 1.03834 1.6224 2.44617 1.624 3.91461z"/><path d="m10.6663 11.3739 1.3785-1.3785c.1845-.18456.4191-.31093.6748-.36344.2556-.0525.5211-.02884.7634.06805l1.6788.67199c.2475.099.4596.2699.609.4906s.2292.4811.2292.7476v3.053c.0004.1815-.0362.3611-.1076.528-.0714.1668-.1761.3173-.3077.4422-.1315.125-.2872.2218-.4575.2845s-.3516.09-.5328.0802c-11.76781-.7324-14.144511-10.69946-14.58575835-14.5162-.02137085-.18659-.00299533-.3756.05391815-.55458.0569132-.178982.1510752-.343888.2762912-.483869.125217-.139981.278651-.251867.450209-.328297.171559-.0764303.35736-.11567367.54517-.1151488h2.99888c.26651-.00000856.52692.0798373.74762.2292378.2207.1494.39157.361502.49058.608943l.67141 1.678824c.09689.24233.12055.50776.06804.76341s-.17887.49027-.36344.67479l-1.37851 1.3785s.76433 5.37369 6.09749 6.04019z"/></g></svg>