<svg width="53" height="53" viewBox="0 0 53 53" fill="none" xmlns="http://www.w3.org/2000/svg">
<path d="M22.7531 46.2468V46.5499C22.7531 48.6735 24.6102 50.395 26.9012 50.395C29.1922 50.395 31.0493 48.6735 31.0493 46.5499V46.2468H22.7531Z" fill="white"/>
<path fill-rule="evenodd" clip-rule="evenodd" d="M15.5555 12.5615C15.2794 12.5615 15.0555 12.7854 15.0555 13.0615C15.0555 17.1559 18.3747 20.4751 22.4691 20.4751H24.9858C25.8942 21.9472 26.4012 23.6672 26.4012 25.4641V29.6605C26.4012 29.7 26.4058 29.7385 26.4145 29.7753C26.4057 29.9506 26.4013 30.1267 26.4013 30.3035V33.1108C26.4013 33.387 26.6251 33.6108 26.9013 33.6108C27.1774 33.6108 27.4013 33.387 27.4013 33.1108V30.3035C27.4013 28.5066 27.9082 26.7868 28.8166 25.3147H31.3209C35.4153 25.3147 38.7345 21.9955 38.7345 17.9011C38.7345 17.625 38.5106 17.4011 38.2345 17.4011H35.4691C31.4319 17.4011 28.1485 20.6281 28.0574 24.6434C27.8135 25.0245 27.5943 25.4213 27.4012 25.8312V25.4641C27.4012 23.4101 26.8019 21.447 25.7321 19.7839C25.6307 15.7779 22.3515 12.5615 18.321 12.5615H15.5555ZM29.5265 24.3147C30.3634 23.2838 31.4213 22.4222 32.6527 21.8064L34.0384 21.1136C34.2854 20.9901 34.3855 20.6898 34.262 20.4428C34.1386 20.1958 33.8382 20.0957 33.5912 20.2192L32.2055 20.912C31.1006 21.4645 30.1221 22.1961 29.2981 23.0615C30.0608 20.3716 32.5348 18.4011 35.4691 18.4011H37.7153C37.4602 21.7096 34.6948 24.3147 31.3209 24.3147H29.5265ZM21.597 16.0727C22.694 16.6212 23.6664 17.3463 24.4868 18.2036C23.7181 15.5231 21.2486 13.5615 18.321 13.5615H16.0747C16.3299 16.87 19.0953 19.4751 22.4691 19.4751H24.2757C23.4389 18.4444 22.3811 17.5827 21.1498 16.9671L19.7641 16.2742C19.5171 16.1507 19.417 15.8504 19.5404 15.6034C19.6639 15.3564 19.9643 15.2563 20.2113 15.3798L21.597 16.0727Z" fill="white"/>
<path d="M18.605 38.9875C18.605 38.4147 19.0693 37.9504 19.642 37.9504H34.1605C34.7333 37.9504 35.1976 38.4147 35.1976 38.9875C35.1976 39.5602 34.7333 40.0245 34.1605 40.0245H19.642C19.0693 40.0245 18.605 39.5602 18.605 38.9875Z" fill="white"/>
<path d="M14.8772 26.5796L14.8508 26.5436C13.058 24.0961 12 21.0842 12 17.8237C12 9.65336 18.8849 2.89059 27.1075 3.00134C35.2465 3.11096 41.8026 9.70987 41.8025 17.8237C41.8025 21.0842 40.7446 24.0961 38.9516 26.5436L38.9252 26.5796L38.6328 27.0641C36.1963 31.0993 34.7351 33.5193 34.0713 36.1604H35.1043C35.7566 33.7641 37.1447 31.4645 39.5848 27.4221L39.7583 27.1346C41.6723 24.5219 42.8025 21.3044 42.8025 17.8237C42.8026 9.15759 35.8017 2.11835 27.121 2.00143C18.3459 1.88324 11 9.09075 11 17.8237C11 21.3044 12.1303 24.5219 14.0441 27.1346L14.2174 27.4216C16.6577 31.4643 18.0459 33.764 18.6982 36.1604H19.7312C19.0675 33.5192 17.6062 31.0991 15.1694 27.0636L14.8772 26.5796Z" fill="white"/>
<path d="M18.605 43.1357C18.605 42.5629 19.0693 42.0986 19.642 42.0986H34.1605C34.7333 42.0986 35.1976 42.5629 35.1976 43.1357C35.1976 43.7084 34.7333 44.1727 34.1605 44.1727H19.642C19.0693 44.1727 18.605 43.7084 18.605 43.1357Z" fill="white"/>
</svg>
