<?xml version="1.0"?>
<svg width="200" height="50" xmlns="http://www.w3.org/2000/svg" xmlns:svg="http://www.w3.org/2000/svg">
 <g class="layer">
  <title>Layer 1</title>
  <path d="m62.5,16l0,14l-2.66,0l-6.98,-8.5l0,8.5l-3.2,0l0,-14l2.68,0l6.96,8.5l0,-8.5l3.2,0z" fill="#8ed000" id="svg_10"/>
  <path d="m76.65,27.4l0,2.6l-10.84,0l0,-14l10.58,0l0,2.6l-7.36,0l0,3.04l6.5,0l0,2.52l-6.5,0l0,3.24l7.62,0z" fill="#8ed000" id="svg_11"/>
  <path d="m87.91,30l-3.38,-4.86l-3.32,4.86l-3.72,0l5.18,-7.12l-4.92,-6.88l3.68,0l3.22,4.54l3.16,-4.54l3.5,0l-4.88,6.76l5.22,7.24l-3.74,0z" fill="#8ed000" id="svg_12"/>
  <path d="m95.67,18.64l-4.48,0l0,-2.64l12.2,0l0,2.64l-4.48,0l0,11.36l-3.24,0l0,-11.36z" fill="#8ed000" id="svg_13"/>
  <g fill="#3696f0" id="svg_14">
   <path d="m121.63,27.4l0,2.6l-10.84,0l0,-14l10.58,0l0,2.6l-7.36,0l0,3.04l6.5,0l0,2.52l-6.5,0l0,3.24l7.62,0z" id="svg_15"/>
   <path d="m137.05,16l0,14l-2.66,0l-6.98,-8.5l0,8.5l-3.2,0l0,-14l2.68,0l6.96,8.5l0,-8.5l3.2,0z" id="svg_16"/>
   <path d="m151.2,27.4l0,2.6l-10.84,0l0,-14l10.58,0l0,2.6l-7.36,0l0,3.04l6.5,0l0,2.52l-6.5,0l0,3.24l7.62,0z" id="svg_17"/>
   <path d="m162.7,30l-2.7,-3.9l-2.98,0l0,3.9l-3.24,0l0,-14l6.06,0c1.24,0 2.31,0.21 3.22,0.62c0.92,0.41 1.63,1 2.12,1.76s0.74,1.66 0.74,2.7s-0.25,1.94 -0.76,2.7c-0.49,0.75 -1.2,1.32 -2.12,1.72l3.14,4.5l-3.48,0zm-0.06,-8.92c0,-0.79 -0.25,-1.39 -0.76,-1.8c-0.51,-0.43 -1.25,-0.64 -2.22,-0.64l-2.64,0l0,4.88l2.64,0c0.97,0 1.71,-0.21 2.22,-0.64s0.76,-1.03 0.76,-1.8z" id="svg_18"/>
   <path d="m177.95,22.78l2.96,0l0,5.68c-0.76,0.57 -1.64,1.01 -2.64,1.32s-2.01,0.46 -3.02,0.46c-1.46,0 -2.76,-0.31 -3.92,-0.92c-1.16,-0.63 -2.08,-1.49 -2.74,-2.58c-0.66,-1.11 -0.98,-2.35 -0.98,-3.74s0.32,-2.63 0.98,-3.72c0.66,-1.11 1.58,-1.97 2.76,-2.58c1.17,-0.63 2.49,-0.94 3.96,-0.94c1.22,0 2.34,0.21 3.34,0.62s1.84,1.01 2.52,1.8l-2.08,1.92c-1,-1.05 -2.21,-1.58 -3.62,-1.58c-0.9,0 -1.69,0.19 -2.38,0.56s-1.24,0.9 -1.62,1.58s-0.58,1.46 -0.58,2.34c0,0.87 0.19,1.64 0.58,2.32s0.92,1.21 1.6,1.6c0.69,0.37 1.48,0.56 2.36,0.56c0.93,0 1.77,-0.2 2.52,-0.6l0,-4.1z" id="svg_19"/>
   <path d="m190.64,25.04l0,4.96l-3.24,0l0,-5l-5.42,-9l3.44,0l3.74,6.22l3.74,-6.22l3.18,0l-5.44,9.04z" id="svg_20"/>
  </g>
 </g>
</svg>

