<svg fill="none" height="50" viewBox="0 0 200 50" width="200" xmlns="http://www.w3.org/2000/svg"><path d="m4.44446 16.6633c0-8.73295 7.34594-15.940456 16.12094-15.822267 8.6808.116915 15.6816 7.156157 15.6815 15.822267 0 3.4807-1.1301 6.6982-3.0441 9.3109-.0585.0968-.1163.1926-.1736.2875-2.44 4.0424-3.8281 6.342-4.4805 8.7383h-16.406c-.6523-2.3964-2.0405-4.6961-4.48087-8.7388-.05716-.0948-.11491-.1904-.17323-.287-1.91388-2.6127-3.04414-5.8302-3.04414-9.3109z" fill="#ffeb33"/><path d="m16.1975 45.0864v.3031c0 2.1236 1.8572 3.8451 4.1482 3.8451s4.1481-1.7215 4.1481-3.8451v-.3031z" fill="#8ed000"/><path d="m9 11.9011h2.7654c3.8183 0 6.9136 3.0953 6.9136 6.9136h-2.7654c-3.8183 0-6.9136-3.0953-6.9136-6.9136z" stroke="#8ed000" stroke-linecap="round" stroke-linejoin="round"/><path d="m31.679 16.7407h-2.7655c-3.8182 0-6.9136 3.0953-6.9136 6.9136h2.7655c3.8182 0 6.9136-3.0953 6.9136-6.9136z" stroke="#8ed000" stroke-linecap="round" stroke-linejoin="round"/><path d="m13.4321 14.6665 1.3857.6929c3.3879 1.6939 5.5279 5.1565 5.5279 8.9442v4.1964" stroke="#8ed000" stroke-linecap="round" stroke-linejoin="round"/><path d="m27.2593 19.5061-1.3857.6929c-3.3879 1.6939-5.5279 5.1565-5.5279 8.9442v2.8074" stroke="#8ed000" stroke-linecap="round" stroke-linejoin="round"/><rect fill="#8ed000" height="2.07407" rx="1.03704" width="16.5926" x="12.0494" y="36.79"/><path d="m8.32169 25.4192-.02638-.036c-1.79289-2.4475-2.85085-5.4594-2.85085-8.7199 0-8.17034 6.88484-14.93311 15.10754-14.82236 8.139.10962 14.695 6.70853 14.6949 14.82236 0 3.2605-1.0578 6.2724-2.8508 8.7199l-.0264.036-.2925.4845c-2.4365 4.0352-3.8977 6.4552-4.5614 9.0963h1.0329c.6524-2.3963 2.0405-4.6959 4.4805-8.7383l.1736-.2875c1.914-2.6127 3.0441-5.8302 3.0441-9.3109.0001-8.66611-7.0007-15.705352-15.6815-15.822267-8.775-.118189-16.12094 7.089317-16.12094 15.822267 0 3.4807 1.13026 6.6982 3.04414 9.3109l.17324.287c2.44036 4.0427 3.82856 6.3424 4.48086 8.7388h1.033c-.6638-2.6412-2.1251-5.0613-4.56183-9.0968z" fill="#ffc700"/><rect fill="#8ed000" height="2.07407" rx="1.03704" width="16.5926" x="12.0494" y="40.9382"/><path d="m62.5 16v14h-2.66l-6.98-8.5v8.5h-3.2v-14h2.68l6.96 8.5v-8.5z" fill="#8ed000"/><path d="m76.6524 27.4v2.6h-10.84v-14h10.58v2.6h-7.36v3.04h6.5v2.52h-6.5v3.24z" fill="#8ed000"/><path d="m87.9136 30-3.38-4.86-3.32 4.86h-3.72l5.18-7.12-4.92-6.88h3.68l3.22 4.54 3.16-4.54h3.5l-4.88 6.76 5.22 7.24z" fill="#8ed000"/><path d="m95.6655 18.64h-4.48v-2.64h12.2005v2.64h-4.4805v11.36h-3.24z" fill="#8ed000"/><g fill="#3696f0"><path d="m121.633 27.4v2.6h-10.84v-14h10.58v2.6h-7.36v3.04h6.5v2.52h-6.5v3.24z"/><path d="m137.051 16v14h-2.66l-6.98-8.5v8.5h-3.2v-14h2.68l6.96 8.5v-8.5z"/><path d="m151.203 27.4v2.6h-10.84v-14h10.58v2.6h-7.36v3.04h6.5v2.52h-6.5v3.24z"/><path d="m162.701 30-2.7-3.9h-2.98v3.9h-3.24v-14h6.06c1.24 0 2.313.2067 3.22.62.92.4133 1.627 1 2.12 1.76s.74 1.66.74 2.7-.253 1.94-.76 2.7c-.493.7467-1.2 1.32-2.12 1.72l3.14 4.5zm-.06-8.92c0-.7867-.253-1.3867-.76-1.8-.507-.4267-1.247-.64-2.22-.64h-2.64v4.88h2.64c.973 0 1.713-.2133 2.22-.64s.76-1.0267.76-1.8z"/><path d="m177.948 22.78h2.96v5.68c-.76.5733-1.64 1.0133-2.64 1.32s-2.007.46-3.02.46c-1.453 0-2.76-.3067-3.92-.92-1.16-.6267-2.073-1.4867-2.74-2.58-.653-1.1067-.98-2.3533-.98-3.74s.327-2.6267.98-3.72c.667-1.1067 1.587-1.9667 2.76-2.58 1.173-.6267 2.493-.94 3.96-.94 1.227 0 2.34.2067 3.34.62s1.84 1.0133 2.52 1.8l-2.08 1.92c-1-1.0533-2.207-1.58-3.62-1.58-.893 0-1.687.1867-2.38.56s-1.233.9-1.62 1.58-.58 1.46-.58 2.34c0 .8667.193 1.64.58 2.32s.92 1.2133 1.6 1.6c.693.3733 1.48.56 2.36.56.933 0 1.773-.2 2.52-.6z"/><path d="m190.638 25.04v4.96h-3.24v-5l-5.42-9h3.44l3.74 6.22 3.74-6.22h3.18z"/></g></svg>